<svg width="100" height="100" viewBox="0 0 100 100" fill="none" xmlns="http://www.w3.org/2000/svg">
<path d="M50 0C77.6227 0 99.9999 22.4155 100 50.0088C100 77.6043 77.6208 100 50 100H45.9443V99.8193C20.2376 97.7534 0.000140852 76.2227 0 49.9912C0 22.3957 22.3792 0 50 0ZM66.4834 53.8105C51.718 59.2984 38.8181 71.5799 34.0586 88.7256C38.9736 90.7516 44.3566 91.8721 50 91.8721H51.2432C54.6284 91.7734 57.9122 91.2691 61.0498 90.4131C67.1815 79.391 69.0313 66.159 66.4834 53.8105ZM91.8662 51.3066C86.1345 50.2679 80.1601 50.3961 74.3008 51.5791C76.7357 62.8191 75.997 74.7293 72.1113 85.5811C83.642 78.3998 91.4255 65.7739 91.8662 51.3066ZM10.7441 35.3525C9.0428 39.91 8.11133 44.8425 8.11133 49.9912C8.11142 64.5102 15.5152 77.3099 26.75 84.8242C32.6642 65.743 47.3816 52.0701 64.2334 46C63.1095 42.945 61.6955 40.0034 60.0156 37.2109C56.2426 38.7552 52.3079 39.9149 48.2773 40.6426C41.1946 41.9196 33.9168 41.9625 26.8135 40.6602C21.2374 39.6663 15.815 37.8791 10.7441 35.3525ZM81.457 22.3506C77.3441 26.7911 72.5594 30.5984 67.3203 33.624C69.2093 36.8474 70.7947 40.2417 72.0508 43.7656C78.4269 42.4034 84.9543 42.1129 91.3018 43.0039C89.9817 35.1689 86.487 28.0696 81.457 22.3506ZM29.7119 13.3447C23.3983 16.847 18.0855 21.9319 14.3086 28.0635C18.6992 30.2576 23.4023 31.8154 28.2461 32.6777L28.2676 32.6816C34.3755 33.8026 40.6722 33.7725 46.8369 32.6611C49.6645 32.1506 52.4404 31.3882 55.1348 30.4023C52.6025 27.4075 49.758 24.6902 46.6465 22.3105C46.4333 22.1628 46.1969 21.9872 46.0039 21.8428C45.8577 21.7334 45.686 21.6035 45.5166 21.4756C45.4027 21.3897 45.2896 21.305 45.1865 21.2275C44.9082 21.0183 44.6557 20.8296 44.4463 20.6797C44.2619 20.5476 44.1831 20.4981 44.1816 20.4961L44.0625 20.4277L43.9219 20.333C43.7148 20.1925 43.5303 20.0642 43.3613 19.9473C42.9901 19.6904 42.6923 19.4847 42.3906 19.3057L42.1934 19.1885L42.0098 19.0498C42.0211 19.0583 42.0207 19.0575 42.0049 19.0469C41.9747 19.0269 41.8906 18.9711 41.7344 18.874C41.5285 18.7464 41.2756 18.5955 41.0059 18.4375C40.6232 18.2136 40.2747 18.0147 39.999 17.8574C39.8706 17.7841 39.7579 17.7196 39.665 17.666L39.6562 17.6611C39.642 17.6533 39.6213 17.6413 39.5898 17.624C39.5802 17.6187 39.5689 17.6137 39.5576 17.6074C39.495 17.5731 39.4112 17.5268 39.3262 17.4795C39.2266 17.4241 39.1058 17.3559 38.9883 17.2871C38.9239 17.2495 38.8043 17.178 38.6699 17.0908C38.5048 16.9924 38.3271 16.8975 38.1162 16.7842C38.1133 16.7826 38.1104 16.7809 38.1074 16.7793C37.8551 16.6599 37.5403 16.5106 37.207 16.3516C36.58 16.0526 35.8843 15.7207 35.4014 15.4961L35.3496 15.4717L35.1309 15.3623C34.3651 15.0073 33.4478 14.6598 32.4209 14.2705C32.1977 14.1859 31.9695 14.0988 31.7363 14.0098C31.1035 13.7826 30.4462 13.576 29.7578 13.3594C29.7426 13.3546 29.7271 13.3495 29.7119 13.3447ZM50 8.11035C46.863 8.11035 43.8071 8.45654 40.8672 9.11035C41.1901 9.26428 41.4742 9.40022 41.667 9.49121L41.7637 9.53711L41.8584 9.58789C41.8803 9.5997 41.9065 9.61336 41.9355 9.62891C42.1548 9.74631 42.563 9.96552 42.9551 10.2051L43.0635 10.2705L43.0938 10.292C43.1379 10.3177 43.1986 10.3519 43.2734 10.3936C43.3389 10.43 43.4019 10.4654 43.4648 10.5C43.4772 10.5068 43.4896 10.5137 43.502 10.5205C43.5366 10.5396 43.5761 10.5613 43.6113 10.5811L43.6143 10.582C43.6323 10.5921 43.6778 10.6177 43.7305 10.6484C43.7782 10.6759 43.8523 10.718 43.9443 10.7705C44.2263 10.9314 44.6824 11.1917 45.1055 11.4395C45.5414 11.6947 46.2069 12.0885 46.6992 12.4336C47.2267 12.7575 47.8063 13.1594 48.1924 13.4268C48.2619 13.4749 48.3254 13.5184 48.3809 13.5566C48.6777 13.7374 48.9687 13.942 49.1709 14.0869C49.4603 14.2942 49.7753 14.5292 50.0625 14.7451C50.1953 14.8449 50.3162 14.9369 50.4307 15.0234C50.5831 15.1385 50.7241 15.2448 50.8643 15.3496C50.9797 15.4361 51.0766 15.507 51.1543 15.5635C51.1927 15.5914 51.2226 15.613 51.2451 15.6289C51.2642 15.6424 51.273 15.6491 51.2734 15.6494L51.3789 15.7197L51.4814 15.7969C55.6948 19.0065 59.4735 22.7449 62.7402 26.8965C67.4916 24.2246 71.8302 20.8115 75.5361 16.8027C68.4674 11.3545 59.6132 8.11035 50 8.11035Z" fill="#F4F9FB"/>
</svg>
