<svg width="67" height="100" viewBox="0 0 67 100" fill="none" xmlns="http://www.w3.org/2000/svg">
<path d="M0 83.3337C0 74.129 7.462 66.667 16.6667 66.667H33.3333V83.3337C33.3333 92.5383 25.8713 100 16.6667 100C7.462 100 0 92.5383 0 83.3337Z" fill="#24CB71"/>
<path d="M33.333 0V33.3333H49.9997C59.2043 33.3333 66.6663 25.8713 66.6663 16.6667C66.6663 7.462 59.2043 0 49.9997 0H33.333Z" fill="#FF7237"/>
<path d="M49.861 66.6663C59.0657 66.6663 66.5277 59.2044 66.5277 49.9997C66.5277 40.7949 59.0657 33.333 49.861 33.333C40.6563 33.333 33.1943 40.7949 33.1943 49.9997C33.1943 59.2044 40.6563 66.6663 49.861 66.6663Z" fill="#00B6FF"/>
<path d="M0 16.6667C0 25.8713 7.462 33.3333 16.6667 33.3333H33.3333V0H16.6667C7.462 0 0 7.462 0 16.6667Z" fill="#FF3737"/>
<path d="M0 49.9997C0 59.2043 7.462 66.6663 16.6667 66.6663H33.3333V33.333H16.6667C7.462 33.333 0 40.795 0 49.9997Z" fill="#874FFF"/>
</svg>
