<svg width="85" height="85" viewBox="0 0 85 85" fill="none" xmlns="http://www.w3.org/2000/svg">
<path d="M56.3467 0C66.5055 0.0176373 66.9013 0.102571 68.8867 0.389648C72.9841 0.980806 76.4228 2.61558 79.2344 5.30176C80.8098 6.81807 81.8948 8.30126 82.8721 10.2871C84.0631 12.7131 84.648 15.0085 84.916 18.4219C84.9735 19.1558 85 30.8105 85 42.4727C85 54.132 84.9755 65.8069 84.918 66.542C84.6532 69.9011 84.0689 72.2165 82.915 74.5967C80.6205 79.3309 76.403 82.7833 71.3105 84.0977C69.464 84.5749 67.7939 84.7992 64.918 84.9346C63.8916 84.9869 53.157 85 42.4229 85C31.6902 85 20.9641 84.9676 19.9092 84.9219C17.425 84.8042 15.4893 84.5557 13.7373 84.1045C8.67765 82.7967 4.38261 79.2917 2.13379 74.623C0.957078 72.184 0.4016 69.9533 0.107422 66.4092C0.0224461 65.4012 0.00292975 60.2147 0.00292969 42.4834C0.00292969 36.5089 -0.00359102 32.0545 0.00292969 28.6699C0.0199232 18.5168 0.104023 18.1106 0.391602 16.123C0.98322 12.0284 2.61699 8.58317 5.31348 5.7832C6.79416 4.24784 8.29496 3.15293 10.1973 2.20801C12.6657 0.978735 14.9312 0.404323 18.5723 0.101562C19.581 0.0178746 24.7705 1.33841e-07 42.5137 0H56.3467ZM42.5127 10.9141C33.9341 10.9141 32.8566 10.9522 29.4863 11.1055C26.1219 11.2594 23.8249 11.7913 21.8154 12.5723C19.7369 13.3788 17.9734 14.4579 16.2168 16.2139C14.459 17.9692 13.3791 19.7313 12.5693 21.8076C11.7859 23.8161 11.253 26.1114 11.1016 29.4717C10.9508 32.8402 10.9111 33.9177 10.9111 42.4941C10.9111 51.0708 10.9488 52.1442 11.1016 55.5127C11.2563 58.8746 11.7895 61.1698 12.5703 63.1777C13.3781 65.2546 14.4578 67.0163 16.2148 68.7715C17.9709 70.5281 19.7343 71.6104 21.8115 72.417C23.8223 73.1979 26.1197 73.7298 29.4834 73.8838C32.8544 74.037 33.9314 74.0742 42.5137 74.0742C51.097 74.0742 52.171 74.0371 55.542 73.8838C58.9061 73.7298 61.2052 73.1978 63.2158 72.417C65.2938 71.6104 67.0546 70.5281 68.8105 68.7715C70.5685 67.0162 71.6482 65.2541 72.458 63.1777C73.2348 61.1692 73.7687 58.874 73.9268 55.5137C74.0782 52.1451 74.1172 51.0708 74.1172 42.4941C74.1172 33.9177 74.0782 32.8412 73.9268 29.4727C73.7687 26.1107 73.2349 23.8156 72.458 21.8076C71.6482 19.7308 70.5683 17.9691 68.8105 16.2139C67.0526 14.4573 65.2944 13.3782 63.2139 12.5723C61.1992 11.7914 58.9014 11.2594 55.5371 11.1055C52.1668 10.9522 51.0933 10.9141 42.5127 10.9141ZM39.6816 16.6055C40.5231 16.6042 41.4628 16.6055 42.5176 16.6055C50.9554 16.6055 51.9559 16.6358 55.2881 16.7871C58.369 16.9279 60.0413 17.4418 61.1553 17.874C62.6301 18.4464 63.6817 19.1311 64.7871 20.2363C65.8932 21.3417 66.5782 22.3944 67.1523 23.8682C67.5849 24.98 68.1 26.6516 68.2402 29.7305C68.3917 33.0592 68.4248 34.0597 68.4248 42.4873C68.4248 50.915 68.3917 51.9151 68.2402 55.2441C68.0993 58.3232 67.5849 59.9946 67.1523 61.1064C66.5795 62.5801 65.8932 63.6298 64.7871 64.7344C63.6811 65.8396 62.6306 66.5234 61.1553 67.0957C60.0426 67.5299 58.3692 68.0437 55.2881 68.1846C51.9566 68.3359 50.9554 68.3682 42.5176 68.3682C34.0791 68.3682 33.0783 68.3359 29.7471 68.1846C26.6657 68.0425 24.9926 67.528 23.8779 67.0957C22.4033 66.5234 21.3501 65.8386 20.2441 64.7334C19.138 63.6281 18.4531 62.5779 17.8789 61.1035C17.4463 59.9916 16.9312 58.3202 16.791 55.2412C16.6396 51.9124 16.6084 50.9122 16.6084 42.4795C16.6084 34.0463 16.6396 33.0507 16.791 29.7217C16.932 26.6429 17.4464 24.9715 17.8789 23.8584C18.4517 22.3849 19.1382 21.3327 20.2441 20.2275C21.3501 19.1223 22.4033 18.4379 23.8779 17.8643C24.992 17.43 26.6657 16.9169 29.7471 16.7754C32.6622 16.6438 33.7922 16.6043 39.6816 16.5977V16.6055ZM42.5166 26.2764C33.554 26.2767 26.2872 33.5382 26.2871 42.4941C26.2871 51.4504 33.5547 58.709 42.5176 58.709C51.4803 58.7088 58.7441 51.4503 58.7441 42.4941C58.744 33.538 51.4794 26.2764 42.5166 26.2764ZM42.5176 31.9678C48.335 31.968 53.0516 36.6803 53.0518 42.4941C53.0518 48.3074 48.3351 53.0213 42.5176 53.0215C36.6992 53.0215 31.9824 48.3075 31.9824 42.4941C31.9825 36.6802 36.6993 31.9678 42.5176 31.9678ZM59.3867 21.8486C57.2932 21.8488 55.5949 23.5442 55.5947 25.6367C55.5947 27.7288 57.2931 29.4266 59.3867 29.4268C61.4804 29.4268 63.1797 27.7289 63.1797 25.6367C63.1795 23.5447 61.4803 21.8477 59.3867 21.8477V21.8486Z" fill="#F4F9FB"/>
</svg>
