<svg width="85" height="85" viewBox="0 0 85 85" fill="none" xmlns="http://www.w3.org/2000/svg">
<path d="M75.5557 0C80.7716 5.77261e-05 84.9999 4.2284 85 9.44434V75.5557C84.9999 80.7716 80.7716 84.9999 75.5557 85H9.44434C4.2284 84.9999 5.77244e-05 80.7716 0 75.5557V9.44434C5.87569e-05 4.2284 4.2284 5.87552e-05 9.44434 0H75.5557ZM13.0244 73.1943H25.7002V32.2686H13.0244V73.1943ZM58.2988 31.0186C49.6141 31.0186 45.959 37.7812 45.959 37.7812V32.2686H33.8037V73.1943H45.959V51.7109C45.959 45.9546 48.6089 42.5293 53.6807 42.5293C58.3428 42.5293 60.5811 45.8207 60.5811 51.7109V73.1943H73.1943V47.2822C73.1942 36.319 66.9795 31.0186 58.2988 31.0186ZM19.3018 11.8057C15.1613 11.8057 11.8057 15.187 11.8057 19.3574C11.8057 23.5279 15.1612 26.9092 19.3018 26.9092C23.4421 26.9089 26.7949 23.5278 26.7949 19.3574C26.7948 15.1872 23.4421 11.8059 19.3018 11.8057Z" fill="#F4F9FB"/>
</svg>
