<svg width="85" height="85" viewBox="0 0 85 85" fill="none" xmlns="http://www.w3.org/2000/svg">
<path d="M70.0879 0C78.3236 8.65867e-05 84.9999 6.67642 85 14.9121V30.8066C84.6439 30.7829 84.286 30.7705 83.9258 30.7705H83.8438C81.943 30.7705 79.6113 31.2321 77.9521 32.0674C76.0632 32.942 74.3969 34.2494 73.0107 35.9658C70.7795 38.7307 69.4282 42.4677 69.0996 46.667C69.089 46.7928 69.0793 46.919 69.0703 47.0449C69.0613 47.1706 69.0555 47.2833 69.0498 47.4033C69.0384 47.628 69.0294 47.8538 69.0244 48.0801C69.0163 48.443 69.014 48.809 69.0205 49.1768C69.2421 58.688 74.3802 66.2891 83.5059 66.2891C84.0172 66.2891 84.5153 66.2656 85 66.2188V70.0879C84.9999 78.3236 78.3236 84.9999 70.0879 85H14.9121C6.67642 84.9999 8.65923e-05 78.3236 0 70.0879V14.9121C8.71021e-05 6.67642 6.67642 8.71077e-05 14.9121 0H70.0879ZM15.6104 20.291L15.6768 20.3057C18.1752 20.8696 19.4434 21.7111 19.4434 24.7441V60.2529C19.4434 63.286 18.1703 64.1275 15.6719 64.6914L15.6055 64.7061V65.2266H25.6133V64.707L25.5479 64.6924C23.0493 64.1284 21.7803 63.2879 21.7803 60.2549V26.8037L38.1084 65.2266H39.0342L55.8379 25.7324V61.1318C55.6238 63.5273 54.3667 64.2665 52.1045 64.7773L52.0371 64.793V65.3086H69.4707V64.793L69.4043 64.7773C67.1396 64.2665 65.8518 63.5273 65.6377 61.1318L65.626 24.7441H65.6377C65.6377 21.711 66.9065 20.8696 69.4043 20.3057L69.4707 20.291V19.7725H55.7822L43.0723 49.6455L30.3613 19.7725H15.6104V20.291ZM85 58.499C80.2431 57.099 76.8407 51.8452 77.1924 45.6289L77.1953 45.627H85V58.499ZM83.7881 32.7646C84.2181 32.7718 84.6223 32.8272 85 32.9307V43.8291H77.3672C77.6525 37.449 79.9437 32.8439 83.7881 32.7646Z" fill="#F4F9FB"/>
</svg>
