<svg width="100" height="100" viewBox="0 0 100 100" fill="none" xmlns="http://www.w3.org/2000/svg">
<path d="M85.7676 25.3984C90.4203 25.3984 100 28.9975 100 50.1992C100 69.5589 90.9742 74.0624 83.6934 74.0625H49.7158V77.5H74.0635C74.0635 77.5 74.0635 86.0873 74.0635 88.9492C74.0635 90.6629 73.769 100 50.1699 100C28.5023 99.9999 25.5967 91.4313 25.5967 86.6768V64.6592C25.5968 53.2867 35.6092 51.5625 39.1475 51.5625H63.2676C74.8812 51.5625 77.2734 42.3219 77.2734 37.3301V25.3984H85.7676ZM63.5801 83.5498C61.1593 83.5499 59.2051 85.5059 59.2051 87.9258C59.2051 90.3457 61.1602 92.3006 63.5801 92.3008C65.9991 92.3008 67.956 90.3457 67.9561 87.9258C67.9561 85.5058 65.9992 83.5498 63.5801 83.5498ZM49.8301 0C73.9125 2.20877e-05 74.4032 10.4563 74.4023 13.3232V35.3408C74.4023 46.8954 64.3988 48.4375 60.8516 48.4375H36.7324C25.2009 48.4377 22.7276 57.6781 22.7275 62.6699V74.6016C22.7275 74.6016 16.3551 74.6016 14.2324 74.6016C7.08344 74.6014 0 67.6851 0 49.8008C3.91476e-05 30.3309 9.08127 25.9375 16.3076 25.9375H50.2842V22.5H25.9668C25.9668 22.5 25.9668 13.9126 25.9668 11.0508C25.9668 9.16413 26.2206 0 49.8301 0ZM36.4209 7.69922C34.001 7.69922 32.0461 9.65346 32.0459 12.0742C32.0459 14.4942 34.0009 16.4502 36.4209 16.4502C38.8409 16.4502 40.7959 14.4933 40.7959 12.0742C40.7957 9.65346 38.8408 7.69922 36.4209 7.69922Z" fill="#F4F9FB"/>
</svg>
