<svg width="100" height="89" viewBox="0 0 100 89" fill="none" xmlns="http://www.w3.org/2000/svg">
<path d="M50.0008 53.3936C54.9234 53.3936 58.9139 49.4117 58.9139 44.4998C58.9139 39.5878 54.9234 35.6059 50.0008 35.6059C45.0783 35.6059 41.0878 39.5878 41.0878 44.4998C41.0878 49.4117 45.0783 53.3936 50.0008 53.3936Z" fill="#61DAFB"/>
<path fill-rule="evenodd" clip-rule="evenodd" d="M65.2089 0.806085C68.655 -0.306261 72.0985 -0.377931 75 1.29332C77.9003 2.96487 79.5581 5.97531 80.3159 9.50843C81.0735 13.043 80.9966 17.3457 80.2395 22.062C79.9462 23.8877 79.5417 25.794 79.0421 27.7647C81.0039 28.3187 82.8591 28.9266 84.5915 29.5865C89.0639 31.2905 92.8357 33.3755 95.5248 35.7977C98.213 38.2194 99.9997 41.1572 100 44.5C99.9997 47.843 98.2132 50.7805 95.5248 53.2024C92.8357 55.6246 89.064 57.7052 84.5915 59.4092C82.8592 60.0692 81.0038 60.6768 79.0421 61.231C79.5422 63.2031 79.9461 65.1111 80.2395 66.938C80.9965 71.6542 81.0735 75.9571 80.3159 79.4916C79.5581 83.0246 77.9003 86.0352 75 87.7067C72.0985 89.3779 68.655 89.3063 65.2089 88.1939C61.7622 87.0813 58.0714 84.86 54.3563 81.8472C52.9173 80.6801 51.4619 79.3803 50 77.9621C48.5389 79.3798 47.0863 80.6805 45.6479 81.8472C41.9334 84.8597 38.2374 87.0768 34.7911 88.1897C31.345 89.3019 27.9014 89.3781 25 87.7067C22.0987 86.0349 20.4417 83.0217 19.6841 79.4873C18.9268 75.9528 19.0076 71.6541 19.7648 66.938C20.0581 65.1112 20.4539 63.2031 20.9536 61.231C18.9934 60.6771 17.1397 60.0688 15.4085 59.4092C10.936 57.7052 7.16427 55.6246 4.4752 53.2024C1.78678 50.7805 0.00030213 47.843 0 44.5C0.000258008 41.1572 1.78702 38.2194 4.4752 35.7977C7.1643 33.3755 10.9361 31.2905 15.4085 29.5865C17.1397 28.927 18.9933 28.3184 20.9536 27.7647C20.4543 25.794 20.0579 23.8876 19.7648 22.062C19.0076 17.3459 18.9268 13.0473 19.6841 9.51267C20.4417 5.97834 22.0987 2.96515 25 1.29332C27.9015 -0.378194 31.345 -0.301892 34.7911 0.810322C38.2374 1.92321 41.9335 4.14037 45.6479 7.15278C47.0856 8.31894 48.5396 9.61674 50 11.0337C51.4613 9.61622 52.9179 8.31938 54.3563 7.15278C58.0714 4.13992 61.7621 1.91874 65.2089 0.806085ZM25.1698 62.2945C24.7004 64.1459 24.3256 65.9279 24.0532 67.6244C23.3452 72.0341 23.3285 75.7533 23.9343 78.5807C24.5404 81.408 25.7092 83.1044 27.1739 83.9487C28.6386 84.7925 30.6932 84.9522 33.4494 84.0631C36.2063 83.1731 39.4273 81.3 42.9008 78.4832C44.2369 77.3996 45.5963 76.1836 46.9684 74.8523C44.1051 71.7623 41.2558 68.2388 38.5063 64.362C33.7665 63.9243 29.2835 63.2241 25.1698 62.2945ZM74.8259 62.2945C70.7121 63.2239 66.2293 63.9245 61.4895 64.362C58.7403 68.2393 55.8903 71.7619 53.0273 74.8523C54.3999 76.1842 55.7584 77.3992 57.0949 78.4832C60.569 81.3006 63.7891 83.1772 66.5464 84.0673C69.3032 84.9572 71.361 84.7965 72.8261 83.9529C74.2906 83.1092 75.455 81.4107 76.0615 78.5849C76.6676 75.7571 76.6508 72.0352 75.9426 67.6244C75.6701 65.9275 75.2954 64.1463 74.8259 62.2945ZM44.1746 64.7561C46.0968 67.2876 48.0496 69.6213 49.9958 71.734C51.9421 69.6214 53.8944 67.2877 55.8169 64.7561C53.9075 64.8429 51.9665 64.8916 50 64.8916C48.0306 64.8916 46.0867 64.8431 44.1746 64.7561ZM50 28.4468C46.8815 28.4468 43.8392 28.5619 40.901 28.7815C39.2426 31.209 37.6229 33.7786 36.0649 36.4713C34.507 39.1638 33.088 41.8491 31.8105 44.4958C33.0889 47.1446 34.5057 49.8339 36.0649 52.5287C37.6223 55.2203 39.2433 57.7876 40.901 60.2142C43.8393 60.4339 46.8813 60.5532 50 60.5532C53.1157 60.5532 56.1548 60.4335 59.0905 60.2142C60.7492 57.7863 62.3726 55.2177 63.9309 52.5245C65.4885 49.8323 66.9036 47.1463 68.181 44.5C66.9036 41.8537 65.4885 39.1677 63.9309 36.4755C62.372 33.7813 60.7499 31.2103 59.0905 28.7815C56.1549 28.5623 53.1156 28.4468 50 28.4468ZM70.4866 49.5926C69.6064 51.2875 68.6811 52.9928 67.697 54.6937C66.7132 56.3941 65.696 58.0473 64.6654 59.655C67.8239 59.2596 70.826 58.7424 73.6328 58.117C72.7718 55.3774 71.7235 52.5213 70.4866 49.5926ZM29.5092 49.5968C28.2729 52.5246 27.2193 55.3782 26.3587 58.117C29.1666 58.743 32.1704 59.2593 35.3303 59.655C34.3004 58.0486 33.2861 56.397 32.303 54.6979C31.3189 52.9971 30.3892 51.2917 29.5092 49.5968ZM22.1382 31.9379C20.2974 32.4579 18.5662 33.0285 16.9582 33.6411C12.7762 35.2345 9.53906 37.08 7.38791 39.0176C5.2376 40.9549 4.34808 42.8122 4.34783 44.5C4.34812 46.1878 5.23731 48.045 7.38791 49.9824C9.53901 51.9201 12.776 53.7655 16.9582 55.3589C18.5658 55.9713 20.2979 56.538 22.1382 57.0578C23.3881 53.0389 25.0188 48.8139 27.0083 44.5C25.0182 40.1847 23.3882 35.958 22.1382 31.9379ZM77.8575 31.9379C76.6066 35.9584 74.9744 40.1842 72.9832 44.5C74.974 48.8148 76.611 53.0381 77.8618 57.0578C79.7021 56.538 81.4342 55.9713 83.0418 55.3589C87.224 53.7655 90.461 51.9201 92.6121 49.9824C94.7627 48.045 95.6519 46.1878 95.6522 44.5C95.6519 42.8122 94.7624 40.9549 92.6121 39.0176C90.4609 37.08 87.2238 35.2345 83.0418 33.6411C81.4326 33.0281 79.6998 32.4582 77.8575 31.9379ZM64.6654 29.3408C65.6966 30.9493 66.7126 32.6049 67.697 34.3063C68.6805 36.0061 69.6069 37.7093 70.4866 39.4032C71.7234 36.4744 72.7719 33.6184 73.6328 30.8788C70.8261 30.2534 67.8237 29.7361 64.6654 29.3408ZM35.3303 29.3408C32.1705 29.7364 29.1665 30.2529 26.3587 30.8788C27.2192 33.6176 28.2729 36.471 29.5092 39.3989C30.3887 37.7051 31.3195 36.0018 32.303 34.3021C33.2867 32.602 34.2998 30.9481 35.3303 29.3408ZM72.8261 5.0471C71.361 4.20345 69.3033 4.0428 66.5464 4.93271C63.7891 5.82282 60.5689 7.69939 57.0949 10.5168C55.7591 11.6002 54.3992 12.8124 53.0273 14.1435C55.8903 17.2337 58.7402 20.7566 61.4895 24.6337C66.2288 25.0706 70.7124 25.7685 74.8259 26.6971C75.2945 24.848 75.6705 23.07 75.9426 21.3757C76.6508 16.9648 76.6676 13.2429 76.0615 10.4151C75.4551 7.58916 74.2907 5.89086 72.8261 5.0471ZM33.4494 4.93695C30.6932 4.04774 28.6386 4.2075 27.1739 5.05134C25.7092 5.89562 24.5404 7.59205 23.9343 10.4193C23.3285 13.2468 23.3452 16.966 24.0532 21.3757C24.3252 23.0694 24.6972 24.8488 25.1656 26.6971C29.2801 25.7678 33.7654 25.0709 38.5063 24.6337C41.2558 20.7571 44.1051 17.2332 46.9684 14.1435C45.597 12.8129 44.2363 11.5999 42.9008 10.5168C39.4273 7.7 36.2063 5.8269 33.4494 4.93695ZM49.9958 17.2617C48.0489 19.3751 46.0975 21.7115 44.1746 24.244C46.0867 24.157 48.0306 24.1084 50 24.1084C51.9679 24.1084 53.9104 24.1572 55.8212 24.244C53.8975 21.7106 51.9433 19.3756 49.9958 17.2617Z" fill="#61DAFB"/>
</svg>
