<svg width="106" height="106" viewBox="0 0 106 106" fill="none" xmlns="http://www.w3.org/2000/svg">
<path d="M53 0.5C53.5269 0.5 54.015 0.776708 54.2861 1.22852L56.9463 5.66211C57.4216 5.7012 57.895 5.74682 58.3662 5.7998L61.8389 1.97266C62.1929 1.58243 62.7254 1.40602 63.2422 1.50879C63.759 1.61158 64.1836 1.9786 64.3613 2.47461L66.1006 7.33008C66.5621 7.46221 67.02 7.60339 67.4756 7.74902L71.624 4.67676C72.0473 4.36331 72.6042 4.29458 73.0908 4.49609C73.5775 4.69767 73.9223 5.14018 74 5.66113L74.7598 10.7676C75.1844 10.9868 75.6044 11.2138 76.0215 11.4453L80.6934 9.23926C81.1696 9.01427 81.729 9.05517 82.167 9.34766C82.605 9.64036 82.8576 10.1418 82.832 10.668L82.5801 15.835C82.9504 16.1301 83.3156 16.4314 83.6768 16.7373L88.6982 15.4824C89.2094 15.3546 89.7505 15.5044 90.123 15.877C90.4956 16.2495 90.6454 16.7906 90.5176 17.3018L89.2617 22.3223C89.5676 22.6835 89.8689 23.0486 90.1641 23.4189L95.332 23.168C95.8582 23.1424 96.3596 23.395 96.6523 23.833C96.9448 24.271 96.9857 24.8304 96.7607 25.3066L94.5537 29.9775C94.7853 30.3946 95.0122 30.8146 95.2314 31.2393L100.339 32C100.86 32.0777 101.302 32.4225 101.504 32.9092C101.705 33.3958 101.637 33.9527 101.323 34.376L98.25 38.5234C98.3956 38.9791 98.5368 39.4369 98.6689 39.8984L103.525 41.6387C104.021 41.8164 104.388 42.241 104.491 42.7578C104.594 43.2746 104.418 43.8071 104.027 44.1611L100.199 47.6328C100.252 48.1041 100.298 48.5774 100.337 49.0527L104.771 51.7139C105.223 51.985 105.5 52.4731 105.5 53C105.5 53.5269 105.223 54.015 104.771 54.2861L100.337 56.9463C100.298 57.4216 100.252 57.895 100.199 58.3662L104.027 61.8389C104.418 62.1929 104.594 62.7254 104.491 63.2422C104.388 63.759 104.021 64.1836 103.525 64.3613L98.6689 66.1006C98.5368 66.5621 98.3956 67.02 98.25 67.4756L101.323 71.624C101.637 72.0473 101.705 72.6042 101.504 73.0908C101.302 73.5775 100.86 73.9223 100.339 74L95.2314 74.7598C95.0122 75.1844 94.7853 75.6044 94.5537 76.0215L96.7607 80.6934C96.9857 81.1696 96.9448 81.729 96.6523 82.167C96.3596 82.605 95.8582 82.8576 95.332 82.832L90.1641 82.5801C89.8689 82.9504 89.5676 83.3155 89.2617 83.6768L90.5176 88.6982C90.6454 89.2094 90.4956 89.7505 90.123 90.123C89.7505 90.4956 89.2094 90.6454 88.6982 90.5176L83.6768 89.2617C83.3155 89.5676 82.9504 89.8689 82.5801 90.1641L82.832 95.332C82.8576 95.8582 82.605 96.3596 82.167 96.6523C81.729 96.9448 81.1696 96.9857 80.6934 96.7607L76.0215 94.5537C75.6044 94.7853 75.1844 95.0122 74.7598 95.2314L74 100.339C73.9223 100.86 73.5775 101.302 73.0908 101.504C72.6042 101.705 72.0473 101.637 71.624 101.323L67.4756 98.25C67.02 98.3956 66.5621 98.5368 66.1006 98.6689L64.3613 103.525C64.1836 104.021 63.759 104.388 63.2422 104.491C62.7254 104.594 62.1929 104.418 61.8389 104.027L58.3662 100.199C57.895 100.252 57.4216 100.298 56.9463 100.337L54.2861 104.771C54.015 105.223 53.5269 105.5 53 105.5C52.4731 105.5 51.985 105.223 51.7139 104.771L49.0527 100.337C48.5774 100.298 48.1041 100.252 47.6328 100.199L44.1611 104.027C43.8071 104.418 43.2746 104.594 42.7578 104.491C42.241 104.388 41.8164 104.021 41.6387 103.525L39.8984 98.6689C39.4369 98.5368 38.9791 98.3956 38.5234 98.25L34.376 101.323C33.9527 101.637 33.3958 101.705 32.9092 101.504C32.4225 101.302 32.0777 100.86 32 100.339L31.2393 95.2314C30.8146 95.0122 30.3946 94.7853 29.9775 94.5537L25.3066 96.7607C24.8304 96.9857 24.271 96.9448 23.833 96.6523C23.395 96.3596 23.1424 95.8582 23.168 95.332L23.4189 90.1641C23.0486 89.8689 22.6835 89.5676 22.3223 89.2617L17.3018 90.5176C16.7906 90.6454 16.2495 90.4956 15.877 90.123C15.5044 89.7505 15.3546 89.2094 15.4824 88.6982L16.7373 83.6768C16.4314 83.3156 16.1301 82.9504 15.835 82.5801L10.668 82.832C10.1418 82.8576 9.64035 82.605 9.34766 82.167C9.05517 81.729 9.01427 81.1696 9.23926 80.6934L11.4453 76.0215C11.2138 75.6044 10.9868 75.1844 10.7676 74.7598L5.66113 74C5.14018 73.9223 4.69767 73.5775 4.49609 73.0908C4.29458 72.6042 4.36331 72.0473 4.67676 71.624L7.74902 67.4756C7.60339 67.02 7.46221 66.5621 7.33008 66.1006L2.47461 64.3613C1.9786 64.1836 1.61158 63.759 1.50879 63.2422C1.40602 62.7254 1.58243 62.1929 1.97266 61.8389L5.7998 58.3662C5.74682 57.895 5.7012 57.4216 5.66211 56.9463L1.22852 54.2861C0.776708 54.015 0.5 53.5269 0.5 53C0.5 52.4731 0.776708 51.985 1.22852 51.7139L5.66211 49.0527C5.70121 48.5774 5.74681 48.1041 5.7998 47.6328L1.97266 44.1611C1.58243 43.8071 1.40602 43.2746 1.50879 42.7578C1.61158 42.241 1.9786 41.8164 2.47461 41.6387L7.33008 39.8984C7.46222 39.437 7.60338 38.9791 7.74902 38.5234L4.67676 34.376C4.36331 33.9527 4.29458 33.3958 4.49609 32.9092C4.69767 32.4225 5.14018 32.0777 5.66113 32L10.7676 31.2393C10.9868 30.8146 11.2138 30.3946 11.4453 29.9775L9.23926 25.3066C9.01427 24.8304 9.05517 24.271 9.34766 23.833C9.64036 23.395 10.1418 23.1424 10.668 23.168L15.835 23.4189C16.1301 23.0486 16.4314 22.6835 16.7373 22.3223L15.4824 17.3018C15.3546 16.7906 15.5044 16.2495 15.877 15.877C16.2495 15.5044 16.7906 15.3546 17.3018 15.4824L22.3223 16.7373C22.6835 16.4314 23.0486 16.1301 23.4189 15.835L23.168 10.668C23.1424 10.1418 23.395 9.64035 23.833 9.34766C24.271 9.05517 24.8304 9.01427 25.3066 9.23926L29.9775 11.4453C30.3946 11.2138 30.8146 10.9868 31.2393 10.7676L32 5.66113C32.0777 5.14018 32.4225 4.69767 32.9092 4.49609C33.3958 4.29458 33.9527 4.36331 34.376 4.67676L38.5234 7.74902C38.9791 7.60338 39.437 7.46222 39.8984 7.33008L41.6387 2.47461C41.8164 1.9786 42.241 1.61158 42.7578 1.50879C43.2746 1.40602 43.8071 1.58243 44.1611 1.97266L47.6328 5.7998C48.1041 5.74681 48.5774 5.70121 49.0527 5.66211L51.7139 1.22852C51.985 0.776708 52.4731 0.5 53 0.5ZM44.5 64.5H53.5V75.5H21.7588C22.7609 76.8889 23.8522 78.2089 25.0264 79.4502L31.958 78.3525C33.5945 78.0933 35.1314 79.2102 35.3906 80.8467L36.4893 87.7871C41.4932 90.1663 47.0906 91.5 53 91.5C58.9091 91.5 64.5061 90.1661 69.5098 87.7871L70.6094 80.8467C70.8686 79.2102 72.4055 78.0933 74.042 78.3525L80.9727 79.4502C82.147 78.2087 83.239 76.8891 84.2412 75.5H68.5C59.5 75.5 65.5 56.5 54.5 56.5H44.5V64.5ZM22.3857 40.8223C23.1379 42.2985 22.5513 44.1052 21.0752 44.8574L14.8164 48.0459C14.608 49.6679 14.5 51.3213 14.5 53C14.5 57.0057 15.1119 60.8684 16.2471 64.5H28.5V38.5H21.2021L22.3857 40.8223ZM55.1211 20.1211C53.9495 21.2927 52.0505 21.2927 50.8789 20.1211L45.9111 15.1533C37.3151 16.7533 29.7251 21.2096 24.1592 27.5H65.5C77.5 27.5 86.5 43.5 71.5 51.5C72.5 51.5 76.5 55.5 77.5 60.5C78.5 65.5 87.5 66.5 87.5 58.5V56.5H91.3398C91.4437 55.3471 91.5 54.1799 91.5 53C91.5 51.3213 91.391 49.6679 91.1826 48.0459L84.9248 44.8574C83.4487 44.1052 82.8621 42.2985 83.6143 40.8223L86.8037 34.5605C81.3548 24.5926 71.6262 17.3007 60.0879 15.1533L55.1211 20.1211ZM44.5 46.5H57.5C65.5 46.5 65.5 38.5 57.5 38.5H44.5V46.5Z" fill="black"/>
</svg>
