<svg width="85" height="85" viewBox="0 0 85 85" fill="none" xmlns="http://www.w3.org/2000/svg">
<path fill-rule="evenodd" clip-rule="evenodd" d="M76.6992 0C81.2836 0 85 3.71639 85 8.30078V76.6992C85 81.2836 81.2836 85 76.6992 85H8.30078C3.71639 85 0 81.2836 0 76.6992V8.30078C0 3.71639 3.71639 0 8.30078 0H76.6992ZM67.0886 39.5117C65.1139 39.5117 63.2431 39.7242 61.4764 40.1484C59.7099 40.5726 58.1555 41.2346 56.813 42.1348C55.4706 43.0352 54.41 44.1824 53.6305 45.5763C52.8511 46.97 52.4609 48.6366 52.4609 50.5758C52.461 53.0516 53.1753 55.1639 54.6042 56.9126C56.0331 58.6613 58.2029 60.1415 61.1128 61.3536C62.2559 61.821 63.3214 62.2796 64.3086 62.7298C65.2959 63.18 66.1491 63.6479 66.8678 64.1327C67.5866 64.6174 68.1544 65.1459 68.5703 65.7173C68.9858 66.2884 69.1936 66.9376 69.1937 67.6647C69.1937 68.2014 69.0633 68.6991 68.8035 69.158C68.5437 69.6168 68.1497 70.0148 67.6215 70.3524C67.0932 70.6901 66.4348 70.9547 65.6467 71.1452C64.8586 71.3357 63.9365 71.4307 62.8801 71.4307C61.0788 71.4307 59.2945 71.1147 57.5277 70.4828C55.7611 69.8509 54.1239 68.9029 52.617 67.6389V75.9497C53.968 76.6422 55.566 77.1614 57.4107 77.5077C59.2554 77.854 61.1997 78.0273 63.2437 78.0273C65.2356 78.0273 67.1278 77.8372 68.9206 77.4563C70.7133 77.0754 72.2852 76.4472 73.6362 75.5728C74.9873 74.6986 76.0572 73.5557 76.8453 72.1446C77.6333 70.7335 78.0273 68.9893 78.0273 66.9118C78.0273 65.4053 77.8021 64.0847 77.3517 62.9506C76.9013 61.8167 76.2522 60.8079 75.4035 59.925C74.5548 59.042 73.537 58.2497 72.3504 57.5485C71.164 56.8473 69.8258 56.1853 68.3362 55.5621C67.245 55.1119 66.2663 54.6747 65.4002 54.2506C64.5341 53.8263 63.7976 53.3938 63.1914 52.9523C62.5851 52.5107 62.1176 52.0429 61.7885 51.5495C61.4595 51.056 61.2947 50.4977 61.2946 49.8744C61.2946 49.3032 61.4417 48.7877 61.7362 48.3288C62.0307 47.87 62.447 47.4766 62.9838 47.1476C63.5209 46.8187 64.1792 46.5632 64.9586 46.3814C65.7381 46.1997 66.6041 46.1084 67.5567 46.1084C68.2495 46.1084 68.9815 46.1607 69.7523 46.2644C70.523 46.3683 71.2979 46.5287 72.0773 46.745C72.8568 46.9615 73.6147 47.2338 74.3509 47.5626C75.087 47.8917 75.7669 48.2727 76.3904 48.7057V40.9403C75.1261 40.4555 73.7449 40.0958 72.2467 39.862C70.7484 39.6283 69.0285 39.5117 67.0886 39.5117ZM19.5898 47.1617H30.1991V77.5293H38.6451V47.1617H49.3066V40.3418H19.5898V47.1617Z" fill="#F4F9FB"/>
</svg>
